<?xml version="1.0" encoding="utf-8"?>
<!-- Generator: Adobe Illustrator 19.0.0, SVG Export Plug-In . SVG Version: 6.00 Build 0)  -->
<svg version="1.1" id="Warstwa_1" xmlns="http://www.w3.org/2000/svg" xmlns:xlink="http://www.w3.org/1999/xlink" x="0px" y="0px"
	 viewBox="0 0 83.1 83.1" style="enable-background:new 0 0 83.1 83.1;" xml:space="preserve">
<style type="text/css">
	.st0{fill:#FFFFFF;}
</style>
<g id="XMLID_30_">
	<path id="XMLID_119_" class="st0" d="M50.9,25.4c-4-2.4-8.6-2.9-12.9-1.7c-4.3,1.2-8.2,4.1-10.8,8.3c-2.6,4.2-3.3,9-2.4,13.4
		c0.9,4.4,3.4,8.3,7.4,10.7c4,2.4,8.6,2.9,12.9,1.7c4.3-1.2,8.2-4.1,10.8-8.3c2.6-4.2,3.3-9,2.4-13.4C57.4,31.7,54.9,27.8,50.9,25.4
		z"/>
	<path id="XMLID_34_" class="st0" d="M57.3,14.9c-13.3-8.1-31.1-3.1-39.8,11.2c-8.7,14.3-4.9,32.4,8.4,40.5
		c13.3,8.1,31.1,3.1,39.8-11.2C74.3,41.1,70.6,23,57.3,14.9z M30.4,59.1c-9.5-5.8-12.1-18.6-6-28.8c6.2-10.1,18.8-13.7,28.3-7.9
		c9.5,5.8,12.1,18.6,6,28.8C52.6,61.3,39.9,64.9,30.4,59.1z"/>
</g>
</svg>
