<?xml version="1.0" encoding="utf-8"?>
<!-- Generator: Adobe Illustrator 19.0.0, SVG Export Plug-In . SVG Version: 6.00 Build 0)  -->
<svg version="1.1" xmlns="http://www.w3.org/2000/svg" xmlns:xlink="http://www.w3.org/1999/xlink" x="0px" y="0px"
	 viewBox="0 0 83.1 83.1" style="enable-background:new 0 0 83.1 83.1;" xml:space="preserve">
<style type="text/css">
	.st0{fill:#FFFFFF;}
</style>
<g id="Warstwa_1">
	<g id="XMLID_117_">
		<path id="XMLID_32_" class="st0" d="M22.9,33.6c3.1-7.5,8.9-13,15.8-15.9c-3.6-1.8-7.6-2.1-11.4-1.1c-4.1,1.2-7.9,3.9-10.4,8
			c-2.5,4.1-3.2,8.7-2.3,12.9c0.8,3.9,3,7.4,6.3,9.7C20.4,42.8,21.1,38.1,22.9,33.6z"/>
		<path id="XMLID_33_" class="st0" d="M19.8,51.4c-9.2-5.9-11.7-18.5-5.6-28.5C20.3,12.7,33,9.2,42.5,14.9c0.2,0.1,0.3,0.2,0.5,0.4
			c3.6-1.1,7.4-1.6,11.2-1.3c-2-2.5-4.4-4.7-7.2-6.5C33.7-0.6,15.9,4.4,7.2,18.6C-1.5,32.9,2.3,51,15.6,59.1c2.4,1.5,5,2.5,7.7,3.1
			C21.5,58.8,20.3,55.2,19.8,51.4z"/>
	</g>
</g>
<g id="Warstwa_2">
	<g id="XMLID_30_">
		<path id="XMLID_119_" class="st0" d="M62.3,30.8c-4-2.4-8.6-2.9-12.9-1.7c-4.3,1.2-8.2,4.1-10.8,8.3c-2.6,4.2-3.3,9-2.4,13.4
			c0.9,4.4,3.4,8.3,7.4,10.7c4,2.4,8.6,2.9,12.9,1.7c4.3-1.2,8.2-4.1,10.8-8.3c2.6-4.2,3.3-9,2.4-13.4
			C68.8,37.1,66.2,33.2,62.3,30.8z"/>
		<path id="XMLID_34_" class="st0" d="M68.6,20.4c-13.3-8.1-31.1-3.1-39.8,11.2c-8.7,14.3-4.9,32.4,8.4,40.5
			c13.3,8.1,31.1,3.1,39.8-11.2C85.7,46.6,81.9,28.5,68.6,20.4z M41.8,64.5c-9.5-5.8-12.1-18.6-6-28.8c6.2-10.1,18.8-13.7,28.3-7.9
			c9.5,5.8,12.1,18.6,6,28.8C63.9,66.7,51.3,70.3,41.8,64.5z"/>
	</g>
</g>
</svg>
